<svg xmlns="http://www.w3.org/2000/svg" width="33" height="32" viewBox="0 0 33 32">
    <path fill="#181717" fill-rule="evenodd" d="M16.288 0C7.293 0 .002 7.293.002 16.29c0 7.197 4.667 13.302 11.14 15.457.815.149 1.111-.354 1.111-.786 0-.386-.014-1.411-.022-2.77-4.53.984-5.487-2.184-5.487-2.184-.74-1.881-1.809-2.383-1.809-2.383-1.479-1.01.112-.99.112-.99 1.635.115 2.495 1.679 2.495 1.679 1.454 2.489 3.813 1.77 4.742 1.354.148-1.053.568-1.771 1.034-2.178-3.617-.411-7.42-1.809-7.42-8.051 0-1.778.635-3.232 1.676-4.371-.168-.412-.727-2.068.16-4.311 0 0 1.368-.438 4.48 1.67 1.299-.362 2.693-.542 4.078-.548 1.383.006 2.776.186 4.078.548 3.11-2.108 4.474-1.67 4.474-1.67.89 2.243.33 3.899.163 4.311 1.043 1.139 1.674 2.593 1.674 4.371 0 6.258-3.808 7.635-7.438 8.038.585.503 1.107 1.497 1.107 3.017 0 2.177-.02 3.934-.02 4.468 0 .436.293.943 1.12.784 6.467-2.159 11.13-8.26 11.13-15.455C32.58 7.293 25.286 0 16.29 0"/>
</svg>
